<svg xmlns="http://www.w3.org/2000/svg" viewBox="0 0 100 100">
  <defs>
    <linearGradient id="gradient" x1="0%" y1="0%" x2="100%" y2="100%">
      <stop offset="0%" style="stop-color:#ff6ec4;stop-opacity:1" />
      <stop offset="100%" style="stop-color:#7873f5;stop-opacity:1" />
    </linearGradient>
  </defs>
  
  <!-- Background circle -->
  <circle cx="50" cy="50" r="45" fill="url(#gradient)" />
  
  <!-- Camera body -->
  <rect x="25" y="35" width="50" height="35" rx="5" fill="white" opacity="0.9"/>
  
  <!-- Camera lens -->
  <circle cx="50" cy="52" r="12" fill="#333" opacity="0.8"/>
  <circle cx="50" cy="52" r="8" fill="#666" opacity="0.6"/>
  <circle cx="50" cy="52" r="4" fill="white" opacity="0.9"/>
  
  <!-- Camera flash -->
  <rect x="35" y="38" width="8" height="4" rx="2" fill="#333" opacity="0.7"/>
  
  <!-- Heart -->
  <path d="M 65 25 C 62 22, 57 22, 55 25 C 53 22, 48 22, 45 25 C 43 27, 43 30, 45 32 L 55 42 L 65 32 C 67 30, 67 27, 65 25 Z" fill="#ff6ec4"/>
  
  <!-- Sparkles -->
  <circle cx="75" cy="35" r="1.5" fill="white" opacity="0.8"/>
  <circle cx="80" cy="45" r="1" fill="white" opacity="0.6"/>
  <circle cx="25" cy="25" r="1" fill="white" opacity="0.7"/>
</svg>